<svg width="245" height="326" viewBox="0 0 245 326" fill="none" xmlns="http://www.w3.org/2000/svg">
<g filter="url(#filter0_ii_190_10)">
<path d="M161.082 96.9152C161.747 105.712 160.158 114.471 160.38 123.267C160.556 130.2 164.547 135.755 171.92 133.881C179.21 132.026 180.688 122.256 181.289 115.876C182.102 107.22 181.141 98.667 179.81 90.1234C179.099 85.5237 178.083 80.9428 177.491 76.3243C177.113 73.3828 177.778 71.1907 180.282 69.4857C185.798 65.7291 194.88 76.5679 198.224 80.1652C209.755 92.5684 218.874 107.37 226.405 122.565C241.723 153.489 249.29 190.145 242.49 224.432C235.856 257.839 216.389 287.966 188.089 306.468C174.433 315.396 159.123 321.56 143.093 324.258C125.926 327.143 107.097 326.487 90.2255 321.972C59.1258 313.634 29.6337 291.873 13.9822 263.103C-2.63019 232.564 -4.49654 195.926 8.68804 163.728C14.9708 148.383 24.5058 134.734 35.7779 122.761C47.3456 110.471 60.6965 99.9129 71.3033 86.676C81.5128 73.9168 88.6917 58.9092 90.3918 42.4309C91.2603 33.9997 91.1309 26.0463 89.2092 17.7463C88.1097 12.9873 82.603 -1.10215 92.5723 0.0688493C96.1387 0.490409 99.5111 2.73873 102.495 4.61233C106.117 6.88875 109.563 9.45558 112.982 12.0411C119.727 17.1561 125.825 23.0579 131.322 29.5312C142.132 42.2717 151.168 56.5672 156.37 72.624C158.92 80.4931 160.177 88.4559 161.055 96.6623C161.055 96.7559 161.073 96.8402 161.082 96.9339V96.9152ZM201.578 124.879C201.394 124.804 201.209 124.729 201.024 124.663C201.033 124.757 201.042 124.851 201.052 124.944C199.645 139.836 189.928 153.789 176.931 158.187C176.929 158.187 176.928 158.188 176.926 158.188C170.458 160.376 163.177 160.197 155.705 156.589C155.708 156.586 155.711 156.583 155.713 156.58C156.006 156.245 156.29 155.902 156.601 155.54C155.828 155.102 153.964 153.771 153.803 155.528C153.803 155.535 153.802 155.542 153.802 155.549C153.087 155.049 152.375 154.547 151.662 154.044C151.661 154.043 151.66 154.042 151.658 154.041C150.944 153.538 150.231 153.034 149.515 152.533C149.515 152.527 149.515 152.522 149.515 152.516C149.516 152.221 149.55 151.909 149.478 151.634C149.258 150.825 148.455 150.616 147.883 151.198C147.879 151.203 147.874 151.207 147.87 151.212C140.968 145.488 137.18 136.907 136.275 128.026C135.735 122.693 136.046 117.327 136.357 111.959C136.484 109.767 136.611 107.574 136.68 105.383C136.743 103.383 136.758 101.384 136.681 99.3883C135.988 81.4018 128.837 62.263 117.278 48.5108C117.275 48.5077 117.272 48.5046 117.269 48.5015C117.115 48.3551 116.961 48.2173 116.807 48.0705C116.752 48.2204 116.696 48.3796 116.641 48.5295C116.234 62.6939 111.476 77.0457 104.426 89.1866C98.0974 100.072 89.7912 109.656 80.8752 118.424C71.8946 127.249 62.184 135.23 53.8686 144.739C37.0529 163.971 26.8342 187.494 28.4788 213.519C28.4788 213.612 28.4788 213.697 28.488 213.79C28.6081 215.57 28.7282 217.35 28.8483 219.121C28.8299 219.149 28.7929 219.186 28.8021 219.214C28.8206 219.28 28.8576 219.336 28.8853 219.402C30.8256 229.688 33.2648 239.112 38.1062 248.433C42.227 256.368 47.3178 263.797 53.5175 270.204C78.3344 295.863 117.01 304.463 150.78 295.001C161.979 291.864 172.241 286.471 181.201 279.401C181.38 279.26 181.558 279.118 181.737 278.975C199.197 264.987 211.626 244.603 216.269 222.193C216.271 222.177 216.273 222.161 216.275 222.144C216.279 222.118 216.283 222.093 216.287 222.067C216.29 222.054 216.292 222.042 216.294 222.03C216.296 222.015 216.298 222.001 216.3 221.986C216.302 221.971 216.304 221.956 216.306 221.94C219.41 205.434 220.066 188.778 217.258 172.15C214.56 156.158 209.607 138.978 201.569 124.888L201.577 124.88L201.578 124.879Z" fill="white"/>
<path d="M161.082 96.9152C161.082 96.8215 161.064 96.7372 161.055 96.6435C161.082 96.7091 161.119 96.7653 161.138 96.8309C161.138 96.8496 161.101 96.8871 161.082 96.9152Z" fill="white"/>
<path d="M155.714 156.58L155.713 156.58C155.705 156.575 155.697 156.57 155.689 156.565C155.642 156.539 155.596 156.513 155.549 156.487C155.528 156.476 155.508 156.465 155.488 156.453C155.415 156.413 155.342 156.373 155.272 156.333C155.268 156.331 155.265 156.329 155.261 156.327C155.234 154.969 155.03 154.856 153.82 155.54C153.959 153.751 155.834 155.09 156.62 155.531C156.305 155.896 156.019 156.233 155.723 156.58L155.714 156.58Z" fill="white"/>
<path d="M149.524 152.524C149.521 152.521 149.518 152.519 149.515 152.516C148.972 152.078 148.43 151.641 147.879 151.203C147.881 151.201 147.882 151.2 147.883 151.198C148.456 150.604 149.266 150.802 149.487 151.624C149.561 151.905 149.515 152.224 149.524 152.524Z" fill="white"/>
<path d="M117.297 48.5014C117.287 48.5014 117.278 48.5014 117.269 48.5015C117.265 48.5015 117.261 48.5016 117.257 48.5016C117.058 48.5037 116.859 48.5201 116.659 48.5201C116.715 48.3702 116.77 48.211 116.826 48.0611C116.983 48.211 117.14 48.3515 117.297 48.5014Z" fill="white"/>
<path d="M201.588 124.879C201.584 124.879 201.581 124.879 201.577 124.88C201.405 124.898 201.233 124.917 201.061 124.944C201.061 124.943 201.061 124.941 201.061 124.94C201.051 124.847 201.042 124.755 201.033 124.663C201.218 124.738 201.403 124.813 201.588 124.879Z" fill="white"/>
<path d="M28.4972 213.509L28.4983 213.511C28.5259 213.576 28.5621 213.632 28.5804 213.697L28.5804 213.698C28.5788 213.717 28.5337 213.753 28.5065 213.772C28.5065 213.682 28.5065 213.601 28.4983 213.511C28.498 213.508 28.4976 213.504 28.4972 213.5L28.4972 213.509Z" fill="white"/>
<path d="M28.8668 219.111C28.8945 219.168 28.9315 219.233 28.95 219.299C28.95 219.311 28.9447 219.323 28.9373 219.336C28.928 219.352 28.9153 219.37 28.9051 219.39L28.9038 219.392C28.8761 219.327 28.8391 219.271 28.8206 219.205C28.8206 219.177 28.8483 219.149 28.8668 219.111Z" fill="white"/>
<path d="M77.4844 188.263C86.4651 187.626 94.0968 196.094 94.0598 204.947C94.0321 214.156 85.8368 221.95 76.8746 221.866C68.5776 221.781 61.3709 215.186 60.3176 206.839C59.0796 197.05 67.82 187.71 77.4844 188.263Z" fill="white"/>
<path d="M185.243 205.294C185.187 211.551 181.79 217.076 176.78 219.9C174.319 221.287 171.47 222.023 168.437 221.875C159.197 221.416 151.843 214.811 152.12 204.291C152.189 201.739 152.886 199.249 154.093 197.022C154.151 196.916 154.21 196.81 154.27 196.704C154.276 196.692 154.283 196.68 154.29 196.669C157.206 191.585 162.814 187.968 169.638 188.309C177.935 188.722 185.871 196.029 185.234 205.294H185.243Z" fill="white"/>
<path d="M123.524 250.073C116.241 250.571 108.661 247.139 104.053 241.376C103.721 240.961 103.405 240.534 103.105 240.096C101.073 237.126 98.7811 231.871 101.996 228.948C106.265 225.06 109.647 229.21 112.723 232.142C118.101 237.276 126.555 237.51 132.145 232.545C134.805 230.175 137.494 225.884 141.652 227.299C142.965 227.747 143.897 228.475 144.513 229.373C145.882 231.37 145.688 234.203 144.636 236.639C141.079 244.911 132.024 249.614 123.533 250.073H123.524Z" fill="white"/>
<path d="M153.811 155.54C153.813 155.539 153.814 155.538 153.816 155.537C155.02 154.857 155.224 154.97 155.252 156.322L155.252 156.324L155.252 156.327C154.772 156.065 154.291 155.802 153.811 155.54Z" fill="white"/>
<path fill-rule="evenodd" clip-rule="evenodd" d="M136.275 128.026C137.18 136.907 140.968 145.488 147.87 151.212L147.879 151.203C148.43 151.641 148.972 152.078 149.515 152.516L149.515 152.533C150.231 153.034 150.944 153.538 151.658 154.041L151.662 154.044C152.375 154.547 153.087 155.049 153.802 155.549L153.803 155.528L153.816 155.537L153.811 155.54L155.252 156.327L155.252 156.324L153.803 155.528L136.68 105.383C136.611 107.574 136.484 109.767 136.357 111.959C136.046 117.327 135.735 122.693 136.275 128.026ZM28.4972 213.509L28.4983 213.511L28.4972 213.5L28.4972 213.509ZM28.5804 213.698C28.5793 213.71 28.5601 213.726 28.5393 213.743C28.5279 213.752 28.5161 213.762 28.5065 213.772C28.5337 213.753 28.5788 213.717 28.5804 213.698ZM28.9373 219.336C28.9316 219.345 28.9249 219.354 28.9184 219.363C28.9131 219.37 28.908 219.377 28.9038 219.383L28.9051 219.39C28.9153 219.37 28.928 219.352 28.9373 219.336ZM155.713 156.58L155.705 156.589C163.177 160.197 170.458 160.376 176.926 158.188C170.46 160.372 163.183 160.189 155.714 156.58L155.713 156.58ZM216.269 222.193C211.626 244.603 199.197 264.987 181.737 278.975C199.207 264.986 211.643 244.592 216.287 222.175C216.292 222.133 216.299 222.09 216.306 222.048C216.313 222.006 216.32 221.964 216.324 221.922C219.429 205.415 220.085 188.75 217.276 172.131C214.569 156.14 209.626 138.959 201.588 124.869C201.412 124.897 201.237 124.916 201.061 124.935L201.061 124.94L201.061 124.944C201.233 124.917 201.405 124.898 201.577 124.88L201.569 124.888C209.607 138.978 214.56 156.158 217.258 172.15C220.066 188.778 219.41 205.434 216.306 221.94C216.304 221.956 216.302 221.971 216.3 221.986C216.298 222.001 216.296 222.015 216.294 222.03C216.292 222.042 216.29 222.054 216.287 222.067C216.283 222.093 216.279 222.118 216.275 222.144C216.273 222.161 216.271 222.177 216.269 222.193ZM169.647 188.3C162.819 187.959 157.204 191.58 154.29 196.669L154.27 196.704L169.647 188.3ZM154.093 197.022C152.886 199.249 152.189 201.739 152.12 204.291C151.843 214.811 159.197 221.416 168.437 221.875C171.47 222.023 174.319 221.287 176.78 219.9C174.322 221.284 171.476 222.017 168.446 221.866C159.207 221.407 151.852 214.802 152.129 204.282C152.195 201.733 152.889 199.247 154.093 197.022ZM104.053 241.376C108.661 247.139 116.241 250.571 123.524 250.073H123.533C132.024 249.614 141.079 244.911 144.636 236.639C145.688 234.203 145.882 231.37 144.513 229.373C145.872 231.369 145.676 234.199 144.627 236.629C141.07 244.901 132.024 249.613 123.524 250.063H123.515C116.236 250.552 108.668 247.133 104.053 241.376Z" fill="white"/>
</g>
<defs>
<filter id="filter0_ii_190_10" x="-2.22632" y="-2.96843" width="248.711" height="328.968" filterUnits="userSpaceOnUse" color-interpolation-filters="sRGB">
<feFlood flood-opacity="0" result="BackgroundImageFix"/>
<feBlend mode="normal" in="SourceGraphic" in2="BackgroundImageFix" result="shape"/>
<feColorMatrix in="SourceAlpha" type="matrix" values="0 0 0 0 0 0 0 0 0 0 0 0 0 0 0 0 0 0 127 0" result="hardAlpha"/>
<feOffset dx="1.48422"/>
<feGaussianBlur stdDeviation="0.853424"/>
<feComposite in2="hardAlpha" operator="arithmetic" k2="-1" k3="1"/>
<feColorMatrix type="matrix" values="0 0 0 0 0.4 0 0 0 0 0.103333 0 0 0 0 0.370333 0 0 0 0.08 0"/>
<feBlend mode="normal" in2="shape" result="effect1_innerShadow_190_10"/>
<feColorMatrix in="SourceAlpha" type="matrix" values="0 0 0 0 0 0 0 0 0 0 0 0 0 0 0 0 0 0 127 0" result="hardAlpha"/>
<feOffset dx="-2.22632" dy="-2.96843"/>
<feGaussianBlur stdDeviation="2.15211"/>
<feComposite in2="hardAlpha" operator="arithmetic" k2="-1" k3="1"/>
<feColorMatrix type="matrix" values="0 0 0 0 0.888691 0 0 0 0 0.888691 0 0 0 0 0.888691 0 0 0 0.44 0"/>
<feBlend mode="normal" in2="effect1_innerShadow_190_10" result="effect2_innerShadow_190_10"/>
</filter>
</defs>
</svg>
