<?xml version="1.0" encoding="UTF-8"?>
<!DOCTYPE svg PUBLIC "-//W3C//DTD SVG 1.1//EN" "http://www.w3.org/Graphics/SVG/1.1/DTD/svg11.dtd">
<svg xmlns="http://www.w3.org/2000/svg" version="1.1" width="512px" height="512px" style="shape-rendering:geometricPrecision; text-rendering:geometricPrecision; image-rendering:optimizeQuality; fill-rule:evenodd; clip-rule:evenodd" xmlns:xlink="http://www.w3.org/1999/xlink">
<g><path style="opacity:0.933" fill="#fefffe" d="M 249.5,60.5 C 269.447,71.5916 287.281,85.5916 303,102.5C 347.543,150.594 374.71,207.261 384.5,272.5C 330.731,252.486 284.564,263.486 246,305.5C 219.04,341.946 214.04,381.279 231,423.5C 235.58,432.328 240.413,440.995 245.5,449.5C 190.562,442.08 153.062,412.413 133,360.5C 127.95,344.216 125.783,327.549 126.5,310.5C 146.04,312.452 163.373,307.285 178.5,295C 194.564,280.259 206.73,262.759 215,242.5C 231.616,200.701 241.949,157.368 246,112.5C 247.889,95.2127 249.056,77.8794 249.5,60.5 Z M 212.5,423.5 C 172.466,405.425 149.466,374.425 143.5,330.5C 143.57,329.228 143.903,328.062 144.5,327C 169.831,322.92 190.331,310.753 206,290.5C 219.446,272.947 229.779,253.614 237,232.5C 252.355,186.375 261.688,139.042 265,90.5C 315.216,132.583 347.883,185.583 363,249.5C 303.201,239.201 256.535,259.201 223,309.5C 202.529,345.937 199.029,383.937 212.5,423.5 Z"/></g>
</svg>
