<?xml version="1.0" encoding="UTF-8"?>
<!DOCTYPE svg PUBLIC "-//W3C//DTD SVG 1.1//EN" "http://www.w3.org/Graphics/SVG/1.1/DTD/svg11.dtd">
<svg xmlns="http://www.w3.org/2000/svg" version="1.1" width="500px" height="500px" style="shape-rendering:geometricPrecision; text-rendering:geometricPrecision; image-rendering:optimizeQuality; fill-rule:evenodd; clip-rule:evenodd" xmlns:xlink="http://www.w3.org/1999/xlink">
<g><path style="opacity:1" fill="#000000" d="M -0.5,-0.5 C 166.167,-0.5 332.833,-0.5 499.5,-0.5C 499.5,166.167 499.5,332.833 499.5,499.5C 332.833,499.5 166.167,499.5 -0.5,499.5C -0.5,332.833 -0.5,166.167 -0.5,-0.5 Z"/></g>
<g><path style="opacity:1" fill="#f9f9f9" d="M 243.5,59.5 C 247.606,61.3876 251.606,63.5542 255.5,66C 322.595,116.322 362.428,183.156 375,266.5C 321.041,245.278 275.374,256.611 238,300.5C 212.961,335.702 208.628,373.369 225,413.5C 229.454,422.244 234.287,430.744 239.5,439C 178.354,429.521 140.52,394.688 126,334.5C 124.787,324.537 124.287,314.537 124.5,304.5C 151.956,305.188 173.789,294.522 190,272.5C 209.901,242.673 223.234,210.007 230,174.5C 238.361,136.614 242.861,98.2802 243.5,59.5 Z"/></g>
<g><path style="opacity:1" fill="#020202" d="M 257.5,87.5 C 302.298,124.043 333.464,170.043 351,225.5C 352.817,231.435 354.317,237.435 355.5,243.5C 298.434,233.965 253.267,252.631 220,299.5C 197.933,336.085 194.433,374.418 209.5,414.5C 173.57,400.161 151.07,373.827 142,335.5C 140.948,329.856 140.115,324.189 139.5,318.5C 160.546,316.393 178.38,307.726 193,292.5C 209.156,273.871 221.489,252.871 230,229.5C 245.903,183.486 255.069,136.153 257.5,87.5 Z"/></g>
</svg>
