<svg width="246" height="327" viewBox="0 0 246 327" fill="none" xmlns="http://www.w3.org/2000/svg">
<g filter="url(#filter0_ii_335_182)">
<path d="M161.188 97.0207C161.853 105.817 160.264 114.576 160.485 123.373C160.661 130.305 164.652 135.86 172.025 133.987C179.315 132.132 180.794 122.361 181.394 115.982C182.207 107.325 181.246 98.7725 179.916 90.2289C179.204 85.6292 178.188 81.0483 177.597 76.4298C177.218 73.4883 177.883 71.2962 180.387 69.5912C185.903 65.8346 194.985 76.6734 198.33 80.2707C209.861 92.6739 218.98 107.475 226.51 122.67C241.829 153.594 249.396 190.251 242.596 224.538C235.962 257.944 216.495 288.072 188.194 306.573C174.539 315.501 159.229 321.665 143.199 324.363C126.032 327.249 107.202 326.593 90.3309 322.077C59.2312 313.74 29.7392 291.978 14.0877 263.209C-2.52472 232.669 -4.39107 196.031 8.79351 163.833C15.0763 148.488 24.6113 134.839 35.8833 122.867C47.451 110.576 60.8019 100.018 71.4087 86.7815C81.6182 74.0223 88.7972 59.0147 90.4973 42.5364C91.3658 34.1052 91.2364 26.1518 89.3146 17.8518C88.2151 13.0928 82.7085 -0.996651 92.6777 0.174349C96.2441 0.595908 99.6165 2.84423 102.601 4.71782C106.223 6.99425 109.669 9.56108 113.088 12.1466C119.832 17.2616 125.93 23.1634 131.428 29.6367C142.238 42.3772 151.274 56.6727 156.476 72.7295C159.026 80.5986 160.282 88.5614 161.16 96.7678C161.16 96.8614 161.178 96.9457 161.188 97.0394V97.0207ZM201.684 124.984C201.499 124.909 201.314 124.834 201.129 124.769C201.139 124.862 201.148 124.956 201.157 125.05C199.751 139.942 190.033 153.894 177.036 158.292C177.035 158.293 177.033 158.293 177.032 158.294C170.563 160.482 163.283 160.302 155.81 156.695C155.813 156.692 155.816 156.688 155.819 156.685C156.112 156.351 156.395 156.007 156.707 155.646C155.934 155.207 154.07 153.876 153.909 155.634C153.908 155.641 153.908 155.648 153.907 155.655C153.192 155.155 152.48 154.652 151.768 154.15C151.766 154.149 151.765 154.148 151.764 154.147C151.05 153.643 150.336 153.14 149.62 152.638C149.62 152.633 149.62 152.627 149.62 152.622C149.621 152.327 149.656 152.015 149.583 151.739C149.363 150.93 148.561 150.721 147.989 151.304C147.984 151.308 147.98 151.313 147.975 151.318C141.074 145.594 137.285 137.013 136.38 128.132C135.84 122.799 136.151 117.433 136.462 112.065C136.59 109.872 136.717 107.68 136.786 105.489C136.849 103.489 136.864 101.49 136.787 99.4938C136.094 81.5073 128.942 62.3685 117.384 48.6163C117.381 48.6132 117.377 48.6101 117.374 48.607C117.22 48.4606 117.066 48.3228 116.913 48.176C116.857 48.3259 116.802 48.4851 116.746 48.635C116.34 62.7994 111.582 77.1512 104.532 89.2921C98.2029 100.178 89.8967 109.761 80.9807 118.53C72 127.354 62.2895 135.336 53.974 144.844C37.1584 164.077 26.9396 187.6 28.5842 213.624C28.5842 213.718 28.5842 213.802 28.5935 213.896C28.7136 215.676 28.8337 217.456 28.9538 219.226C28.9353 219.254 28.8984 219.292 28.9076 219.32C28.9261 219.385 28.9631 219.442 28.9908 219.507C30.931 229.793 33.3702 239.217 38.2117 248.539C42.3324 256.473 47.4233 263.902 53.6229 270.31C78.4399 295.969 117.116 304.569 150.886 295.107C162.084 291.97 172.346 286.576 181.306 279.507C181.485 279.365 181.664 279.223 181.842 279.081C199.302 265.092 211.732 244.709 216.374 222.299C216.376 222.282 216.378 222.266 216.381 222.25C216.384 222.224 216.389 222.198 216.393 222.172C216.395 222.16 216.397 222.148 216.399 222.135C216.401 222.121 216.404 222.106 216.406 222.092C216.408 222.077 216.41 222.061 216.411 222.046C219.516 205.54 220.172 188.883 217.363 172.255C214.665 156.264 209.713 139.083 201.675 124.994L201.683 124.985L201.684 124.984Z" fill="black"/>
<path d="M161.188 97.0207C161.188 96.927 161.169 96.8427 161.16 96.749C161.188 96.8146 161.225 96.8708 161.243 96.9364C161.243 96.9551 161.206 96.9926 161.188 97.0207Z" fill="black"/>
<path d="M155.82 156.685L155.819 156.685C155.811 156.68 155.802 156.676 155.794 156.671C155.748 156.645 155.701 156.619 155.654 156.593C155.634 156.581 155.614 156.57 155.593 156.559C155.521 156.519 155.448 156.479 155.377 156.438C155.374 156.436 155.37 156.435 155.367 156.433C155.339 155.074 155.136 154.962 153.926 155.646C154.064 153.856 155.94 155.196 156.725 155.636C156.411 156.002 156.125 156.339 155.829 156.685L155.82 156.685Z" fill="black"/>
<path d="M149.629 152.629C149.626 152.627 149.623 152.624 149.62 152.622C149.078 152.184 148.536 151.746 147.985 151.308C147.986 151.307 147.987 151.305 147.989 151.304C148.561 150.71 149.371 150.907 149.592 151.73C149.666 152.011 149.62 152.329 149.629 152.629Z" fill="black"/>
<path d="M117.402 48.6069C117.393 48.6069 117.384 48.6069 117.374 48.607C117.37 48.607 117.366 48.6071 117.362 48.6071C117.163 48.6092 116.964 48.6256 116.765 48.6256C116.82 48.4757 116.876 48.3165 116.931 48.1666C117.088 48.3165 117.245 48.457 117.402 48.6069Z" fill="black"/>
<path d="M201.693 124.984C201.69 124.985 201.686 124.985 201.683 124.985C201.511 125.004 201.339 125.022 201.166 125.05C201.166 125.048 201.166 125.047 201.166 125.045C201.157 124.953 201.148 124.861 201.139 124.769C201.324 124.844 201.508 124.919 201.693 124.984Z" fill="black"/>
<path d="M28.6027 213.615L28.6038 213.617C28.6314 213.682 28.6676 213.737 28.6859 213.802L28.6858 213.803C28.6843 213.822 28.6392 213.859 28.612 213.877C28.612 213.787 28.612 213.706 28.6038 213.617C28.6035 213.613 28.6031 213.609 28.6027 213.605L28.6027 213.615Z" fill="black"/>
<path d="M28.9723 219.217C29 219.273 29.037 219.339 29.0554 219.404C29.0554 219.416 29.0502 219.429 29.0427 219.442C29.0335 219.458 29.0208 219.475 29.0105 219.495L29.0092 219.498C28.9815 219.432 28.9446 219.376 28.9261 219.311C28.9261 219.282 28.9538 219.254 28.9723 219.217Z" fill="black"/>
<path d="M77.5899 188.368C86.5705 187.731 94.2022 196.2 94.1653 205.052C94.1376 214.261 85.9422 222.055 76.9801 221.971C68.6831 221.887 61.4764 215.292 60.4231 206.945C59.185 197.155 67.9255 187.815 77.5899 188.368Z" fill="black"/>
<path d="M185.349 205.399C185.293 211.657 181.896 217.182 176.885 220.006C174.425 221.393 171.576 222.128 168.542 221.98C159.303 221.521 151.948 214.917 152.226 204.397C152.294 201.845 152.992 199.354 154.198 197.128C154.256 197.021 154.315 196.915 154.375 196.81C154.382 196.798 154.389 196.786 154.395 196.774C157.311 191.691 162.919 188.074 169.743 188.415C178.04 188.827 185.977 196.134 185.339 205.399H185.349Z" fill="black"/>
<path d="M123.63 250.178C116.347 250.676 108.766 247.245 104.158 241.481C103.827 241.067 103.51 240.64 103.211 240.201C101.178 237.231 98.8866 231.976 102.102 229.053C106.371 225.166 109.752 229.316 112.829 232.248C118.206 237.381 126.66 237.616 132.25 232.651C134.911 230.28 137.6 225.99 141.757 227.404C143.07 227.852 144.002 228.581 144.618 229.479C145.987 231.476 145.793 234.308 144.742 236.744C141.184 245.016 132.13 249.719 123.639 250.178H123.63Z" fill="black"/>
<path d="M153.916 155.646C153.918 155.645 153.92 155.644 153.921 155.643C155.126 154.963 155.329 155.076 155.358 156.427L155.358 156.43L155.358 156.433C154.877 156.17 154.397 155.908 153.916 155.646Z" fill="black"/>
<path fill-rule="evenodd" clip-rule="evenodd" d="M136.38 128.132C137.285 137.013 141.074 145.594 147.975 151.318L147.985 151.308C148.536 151.746 149.078 152.184 149.62 152.622L149.62 152.638C150.336 153.14 151.05 153.643 151.764 154.147L151.768 154.15C152.48 154.652 153.192 155.155 153.907 155.655L153.909 155.634L153.921 155.643L153.916 155.646L155.358 156.433L155.358 156.43L153.909 155.634L136.786 105.489C136.717 107.68 136.59 109.872 136.462 112.065C136.151 117.433 135.84 122.799 136.38 128.132ZM28.6027 213.615L28.6038 213.617L28.6027 213.605L28.6027 213.615ZM28.6858 213.803C28.6848 213.815 28.6656 213.831 28.6448 213.848C28.6334 213.858 28.6216 213.867 28.612 213.877C28.6392 213.859 28.6843 213.822 28.6858 213.803ZM29.0427 219.442C29.037 219.451 29.0304 219.46 29.0239 219.468C29.0186 219.475 29.0134 219.482 29.0093 219.488L29.0105 219.495C29.0208 219.475 29.0335 219.458 29.0427 219.442ZM155.819 156.685L155.81 156.695C163.283 160.302 170.563 160.482 177.032 158.294C170.565 160.477 163.288 160.294 155.82 156.685L155.819 156.685ZM216.374 222.299C211.732 244.709 199.302 265.092 181.842 279.081C199.312 265.092 211.748 244.698 216.393 222.28C216.398 222.238 216.404 222.196 216.411 222.154C216.418 222.112 216.425 222.069 216.43 222.027C219.534 205.521 220.19 188.855 217.382 172.236C214.674 156.245 209.731 139.064 201.693 124.975C201.518 125.003 201.342 125.022 201.166 125.04L201.166 125.045L201.166 125.05C201.339 125.022 201.511 125.004 201.683 124.985L201.675 124.994C209.713 139.083 214.665 156.264 217.363 172.255C220.172 188.883 219.516 205.54 216.411 222.046C216.41 222.061 216.408 222.077 216.406 222.092C216.404 222.106 216.401 222.121 216.399 222.135C216.397 222.148 216.395 222.16 216.393 222.172C216.389 222.198 216.384 222.224 216.381 222.25C216.378 222.266 216.376 222.282 216.374 222.299ZM169.753 188.405C162.924 188.064 157.31 191.686 154.395 196.774L154.375 196.81L169.753 188.405ZM154.198 197.128C152.992 199.354 152.294 201.845 152.226 204.397C151.948 214.917 159.303 221.521 168.542 221.98C171.576 222.128 174.425 221.393 176.885 220.006C174.427 221.389 171.581 222.122 168.551 221.971C159.312 221.512 151.958 214.908 152.235 204.387C152.301 201.839 152.995 199.352 154.198 197.128ZM104.158 241.481C108.766 247.245 116.347 250.676 123.63 250.178H123.639C132.13 249.719 141.184 245.016 144.742 236.744C145.793 234.308 145.987 231.476 144.618 229.479C145.977 231.475 145.782 234.304 144.732 236.735C141.175 245.007 132.13 249.719 123.63 250.169H123.62C116.341 250.658 108.773 247.238 104.158 241.481Z" fill="black"/>
</g>
<defs>
<filter id="filter0_ii_335_182" x="-2.12085" y="-2.86293" width="248.711" height="328.968" filterUnits="userSpaceOnUse" color-interpolation-filters="sRGB">
<feFlood flood-opacity="0" result="BackgroundImageFix"/>
<feBlend mode="normal" in="SourceGraphic" in2="BackgroundImageFix" result="shape"/>
<feColorMatrix in="SourceAlpha" type="matrix" values="0 0 0 0 0 0 0 0 0 0 0 0 0 0 0 0 0 0 127 0" result="hardAlpha"/>
<feOffset dx="1.48422"/>
<feGaussianBlur stdDeviation="0.853424"/>
<feComposite in2="hardAlpha" operator="arithmetic" k2="-1" k3="1"/>
<feColorMatrix type="matrix" values="0 0 0 0 0.4 0 0 0 0 0.103333 0 0 0 0 0.370333 0 0 0 0.08 0"/>
<feBlend mode="normal" in2="shape" result="effect1_innerShadow_335_182"/>
<feColorMatrix in="SourceAlpha" type="matrix" values="0 0 0 0 0 0 0 0 0 0 0 0 0 0 0 0 0 0 127 0" result="hardAlpha"/>
<feOffset dx="-2.22632" dy="-2.96843"/>
<feGaussianBlur stdDeviation="2.15211"/>
<feComposite in2="hardAlpha" operator="arithmetic" k2="-1" k3="1"/>
<feColorMatrix type="matrix" values="0 0 0 0 0.888691 0 0 0 0 0.888691 0 0 0 0 0.888691 0 0 0 0.44 0"/>
<feBlend mode="normal" in2="effect1_innerShadow_335_182" result="effect2_innerShadow_335_182"/>
</filter>
</defs>
</svg>
