<svg width="100" height="51" viewBox="0 0 100 51" fill="none" xmlns="http://www.w3.org/2000/svg">
<path fill-rule="evenodd" clip-rule="evenodd" d="M50 50.6778C77.6143 50.6778 100 39.3329 100 25.3391C100 11.3454 77.6143 0.000488281 50 0.000488281C22.3863 0.000488281 0 11.3454 0 25.3391C0 39.3329 22.3863 50.6778 50 50.6778Z" fill="#6E81B6"/>
<path fill-rule="evenodd" clip-rule="evenodd" d="M60.1333 33.5288L62.6134 20.7643C63.1732 17.8833 62.7077 15.7345 61.2306 14.3766C59.7995 13.0627 57.3702 12.4237 53.8042 12.4237H49.5091L50.7376 6.09944C50.7607 5.98174 50.7573 5.8604 50.7279 5.74413C50.6985 5.62786 50.6437 5.51954 50.5675 5.42695C50.4912 5.33436 50.3955 5.25979 50.287 5.2086C50.1785 5.15741 50.0601 5.13086 49.9401 5.13086H44.012C43.6226 5.13086 43.2882 5.40716 43.2139 5.78928L40.5796 19.3404C40.3402 17.8156 39.7501 16.5048 38.8057 15.4231C37.0668 13.4328 34.3164 12.4237 30.6301 12.4237H19.1401C18.7508 12.4237 18.4164 12.7 18.342 13.0815L13.0112 40.5114C12.9646 40.7503 13.0269 40.9957 13.1817 41.1832C13.3359 41.3712 13.5656 41.4794 13.8093 41.4794H19.784C20.1734 41.4794 20.5077 41.2031 20.5821 40.8204L21.8717 34.186H26.3193C28.653 34.186 30.6144 33.9333 32.1453 33.4351C33.7106 32.926 35.1514 32.0626 36.4211 30.874C37.4471 29.9314 38.2948 28.8757 38.9471 27.7372L37.8824 33.2174C37.8359 33.4562 37.8981 33.7029 38.0529 33.8891C38.2071 34.0772 38.4375 34.1854 38.6805 34.1854H44.6087C44.9981 34.1854 45.3324 33.9091 45.4068 33.5276L48.3325 18.471H52.4003C54.1337 18.471 54.6416 18.8162 54.78 18.9643C54.9052 19.0998 55.1652 19.5768 54.8732 21.0805L52.5152 33.2168C52.4926 33.3345 52.4962 33.4557 52.5259 33.5718C52.5555 33.6879 52.6104 33.796 52.6866 33.8885C52.7628 33.9809 52.8585 34.0554 52.9668 34.1066C53.0752 34.1579 53.1934 34.1845 53.3133 34.1848H59.3358C59.5242 34.1852 59.7069 34.1199 59.8525 34.0002C59.998 33.8805 60.0973 33.7138 60.1333 33.5288ZM32.6489 22.982C32.2765 24.8956 31.5751 26.2602 30.563 27.0383C29.5352 27.831 27.8912 28.2324 25.6766 28.2324H23.0284L24.9432 18.3785H28.3671C30.8822 18.3785 31.8956 18.916 32.3025 19.3664C32.8666 19.9916 32.9863 21.2425 32.6489 22.982ZM85.1043 15.4231C83.366 13.4328 80.6156 12.4237 76.9293 12.4237H65.4393C65.0493 12.4237 64.7156 12.7 64.6412 13.0815L59.311 40.5114C59.2638 40.7503 59.3261 40.9957 59.4809 41.1832C59.6357 41.3706 59.866 41.4794 60.1079 41.4794H66.0832C66.4732 41.4794 66.8069 41.2031 66.8813 40.8204L68.1709 34.186H72.6191C74.9535 34.186 76.913 33.9333 78.4445 33.4351C80.0104 32.926 81.4512 32.0626 82.7203 30.874C83.7795 29.9011 84.6508 28.8074 85.311 27.6266C85.9713 26.4458 86.4447 25.1289 86.721 23.7117C87.4 20.2165 86.8564 17.428 85.1043 15.4231ZM79.2873 22.982C78.9143 24.8956 78.2129 26.2602 77.202 27.0383C76.1736 27.831 74.5296 28.2324 72.3155 28.2324H69.6668L71.5809 18.3785H75.0055C77.5206 18.3785 78.534 18.916 78.9415 19.3664C79.5043 19.9916 79.6247 21.2425 79.2873 22.982Z" fill="white"/>
<path fill-rule="evenodd" clip-rule="evenodd" d="M28.1971 17.5655C30.4668 17.5655 31.9802 17.9845 32.7365 18.8225C33.4923 19.6605 33.6725 21.0995 33.277 23.1376C32.8635 25.2604 32.0678 26.7755 30.8888 27.6837C29.7098 28.5918 27.9154 29.0452 25.5066 29.0452H21.8717L24.1027 17.5655H28.1971ZM13.6387 40.6664H19.6134L21.0313 33.3742H26.1493C28.4075 33.3742 30.2655 33.1366 31.7238 32.662C33.1821 32.1874 34.508 31.3923 35.7009 30.2756C36.7022 29.356 37.5123 28.3403 38.1327 27.2302C38.7524 26.1201 39.1926 24.8958 39.4531 23.5566C40.0856 20.305 39.6085 17.7723 38.0232 15.9585C36.4386 14.144 33.9167 13.2371 30.4602 13.2371H18.9701L13.6387 40.6664ZM43.8414 5.94434H49.7696L48.3524 13.2371H53.6343C56.956 13.2371 59.2493 13.8163 60.5105 14.9754C61.7718 16.1344 62.1497 18.0129 61.6454 20.6097L59.1653 33.3742H53.1428L55.5007 21.2373C55.7686 19.8564 55.6706 18.915 55.2045 18.4126C54.7383 17.9108 53.7462 17.6592 52.2298 17.6592H47.4921L44.4382 33.3742H38.51L43.8414 5.94434ZM74.8356 17.5655C77.1053 17.5655 78.618 17.9845 79.375 18.8225C80.1308 19.6605 80.3104 21.0995 79.9149 23.1376C79.5026 25.2604 78.7069 26.7755 77.5273 27.6837C76.3489 28.5918 74.5539 29.0452 72.1463 29.0452H68.5114L70.7418 17.5655H74.8356ZM60.276 40.6664H66.2513L67.6685 33.3742H72.7866C75.0454 33.3742 76.9034 33.1366 78.3617 32.662C79.82 32.1874 81.1459 31.3923 82.3388 30.2756C83.3401 29.356 84.1502 28.3403 84.77 27.2302C85.3897 26.1201 85.8305 24.8958 86.0916 23.5566C86.7235 20.305 86.2464 17.7723 84.6617 15.9585C83.0758 14.144 80.5546 13.2371 77.098 13.2371H65.608L60.276 40.6664Z" fill="black"/>
</svg>
