<svg width="100" height="100" viewBox="0 0 100 100" fill="none" xmlns="http://www.w3.org/2000/svg">
<path d="M49.6397 0.000488281C24.2535 0.000488281 25.8385 11.0095 25.8385 11.0095L25.8667 22.4151H50.0924V25.8394H16.2447C16.2447 25.8394 0 23.9971 0 49.6116C0 75.2269 14.1788 74.3185 14.1788 74.3185H22.6406V62.432C22.6406 62.432 22.1844 48.2532 36.593 48.2532H60.6205C60.6205 48.2532 74.1199 48.4713 74.1199 35.2065V13.2739C74.1199 13.2739 76.1702 0.000488281 49.6397 0.000488281ZM36.2817 7.67056C36.8542 7.67004 37.4211 7.78242 37.9501 8.00125C38.4791 8.22009 38.9598 8.54109 39.3646 8.94589C39.7693 9.35068 40.0903 9.83133 40.3092 10.3603C40.528 10.8893 40.6404 11.4563 40.6399 12.0287C40.6404 12.6012 40.528 13.1681 40.3092 13.6971C40.0903 14.2261 39.7693 14.7068 39.3646 15.1116C38.9598 15.5164 38.4791 15.8374 37.9501 16.0562C37.4211 16.275 36.8542 16.3874 36.2817 16.3869C35.7092 16.3874 35.1423 16.275 34.6133 16.0562C34.0843 15.8374 33.6037 15.5164 33.1989 15.1116C32.7941 14.7068 32.4731 14.2261 32.2542 13.6971C32.0354 13.1681 31.923 12.6012 31.9235 12.0287C31.923 11.4563 32.0354 10.8893 32.2542 10.3603C32.4731 9.83133 32.7941 9.35068 33.1989 8.94589C33.6037 8.54109 34.0843 8.22009 34.6133 8.00125C35.1423 7.78242 35.7092 7.67004 36.2817 7.67056Z" fill="url(#paint0_linear_99_24464)"/>
<path d="M50.361 99.4803C75.7473 99.4803 74.1622 88.4713 74.1622 88.4713L74.134 77.066H49.908V73.6418H83.7557C83.7557 73.6418 100 75.4841 100 49.8687C100 24.2537 85.8216 25.1622 85.8216 25.1622H77.3598V37.0483C77.3598 37.0483 77.816 51.2271 63.4074 51.2271H39.3799C39.3799 51.2271 25.8805 51.009 25.8805 64.2742V86.2072C25.8805 86.2072 23.8306 99.4803 50.3607 99.4803H50.361ZM63.7191 91.811C63.1466 91.8115 62.5797 91.6991 62.0507 91.4803C61.5217 91.2615 61.041 90.9405 60.6362 90.5357C60.2314 90.1309 59.9104 89.6502 59.6916 89.1212C59.4728 88.5922 59.3604 88.0253 59.3609 87.4528C59.3603 86.8803 59.4727 86.3133 59.6915 85.7843C59.9103 85.2553 60.2313 84.7746 60.6361 84.3697C61.0409 83.9649 61.5215 83.6439 62.0506 83.425C62.5796 83.2061 63.1466 83.0937 63.7191 83.0943C64.2915 83.0937 64.8585 83.2061 65.3875 83.4249C65.9165 83.6438 66.3971 83.9648 66.8019 84.3696C67.2067 84.7744 67.5277 85.255 67.7465 85.784C67.9654 86.313 68.0778 86.88 68.0772 87.4524C68.0778 88.0249 67.9654 88.5919 67.7465 89.1208C67.5277 89.6498 67.2067 90.1305 66.8019 90.5353C66.3971 90.9401 65.9165 91.2611 65.3875 91.4799C64.8585 91.6988 64.2915 91.8111 63.7191 91.8106V91.811Z" fill="url(#paint1_linear_99_24464)"/>
<defs>
<linearGradient id="paint0_linear_99_24464" x1="9.60996" y1="8.94811" x2="59.1669" y2="58.0107" gradientUnits="userSpaceOnUse">
<stop stop-color="#387EB8"/>
<stop offset="1" stop-color="#366994"/>
</linearGradient>
<linearGradient id="paint1_linear_99_24464" x1="40.0284" y1="40.453" x2="93.2469" y2="90.7621" gradientUnits="userSpaceOnUse">
<stop stop-color="#FFE052"/>
<stop offset="1" stop-color="#FFC331"/>
</linearGradient>
</defs>
</svg>
