<svg width="700" height="394" viewBox="0 0 700 394" fill="none" xmlns="http://www.w3.org/2000/svg">
<rect x="0.5" y="0.5" width="699" height="392.75" rx="23.5" fill="#0A0A0A" stroke="#3A3939"/>
<rect x="187.396" width="1" height="277.083" rx="0.5" fill="url(#paint0_radial_238_2298)"/>
<rect x="512.24" y="123.958" width="1" height="269.792" rx="0.5" fill="url(#paint1_radial_238_2298)"/>
<rect width="543.229" height="1" rx="0.5" transform="matrix(-1 0 0 1 543.229 95.1562)" fill="url(#paint2_radial_238_2298)"/>
<rect width="543.229" height="1" rx="0.5" transform="matrix(-1 0 0 1 543.229 84.2188)" fill="url(#paint3_radial_238_2298)"/>
<rect width="527.917" height="1" rx="0.5" transform="matrix(-1 0 0 1 699.271 305.521)" fill="url(#paint4_radial_238_2298)"/>
<rect width="527.917" height="1" rx="0.5" transform="matrix(-1 0 0 1 699.271 316.458)" fill="url(#paint5_radial_238_2298)"/>
<path opacity="0.933" fill-rule="evenodd" clip-rule="evenodd" d="M348.161 137C354.343 140.437 359.87 144.775 364.742 150.014C378.546 164.916 386.966 182.475 390 202.689C373.336 196.488 359.028 199.896 347.077 212.914C338.721 224.207 337.172 236.395 342.428 249.477C343.847 252.213 345.345 254.898 346.922 257.533C329.895 255.234 318.273 246.042 312.056 229.956C310.491 224.911 309.819 219.746 310.041 214.464C316.097 215.068 321.469 213.467 326.157 209.661C331.136 205.093 334.906 199.671 337.469 193.393C342.619 180.442 345.821 167.015 347.077 153.112C347.662 147.756 348.024 142.385 348.161 137ZM336.694 249.477C324.287 243.877 317.159 234.271 315.31 220.661C315.332 220.267 315.435 219.905 315.62 219.576C323.47 218.312 329.824 214.542 334.68 208.267C338.847 202.828 342.049 196.837 344.287 190.295C349.046 176.003 351.938 161.337 352.965 146.296C368.528 159.335 378.652 175.758 383.337 195.562C364.804 192.371 350.341 198.568 339.948 214.154C333.604 225.444 332.519 237.218 336.694 249.477Z" fill="url(#paint6_linear_238_2298)"/>
<defs>
<radialGradient id="paint0_radial_238_2298" cx="0" cy="0" r="1" gradientUnits="userSpaceOnUse" gradientTransform="translate(187.896 138.542) rotate(90) scale(138.542 0.5)">
<stop stop-color="#D9D9D9"/>
<stop offset="1" stop-color="#0A0A0A"/>
</radialGradient>
<radialGradient id="paint1_radial_238_2298" cx="0" cy="0" r="1" gradientUnits="userSpaceOnUse" gradientTransform="translate(512.74 258.854) rotate(90) scale(134.896 0.5)">
<stop stop-color="#D9D9D9"/>
<stop offset="1" stop-color="#0A0A0A"/>
</radialGradient>
<radialGradient id="paint2_radial_238_2298" cx="0" cy="0" r="1" gradientUnits="userSpaceOnUse" gradientTransform="translate(271.615 0.5) scale(271.615 0.5)">
<stop stop-color="#D9D9D9"/>
<stop offset="1" stop-color="#0A0A0A"/>
</radialGradient>
<radialGradient id="paint3_radial_238_2298" cx="0" cy="0" r="1" gradientUnits="userSpaceOnUse" gradientTransform="translate(271.615 0.5) scale(271.615 0.5)">
<stop stop-color="#D9D9D9"/>
<stop offset="1" stop-color="#0A0A0A"/>
</radialGradient>
<radialGradient id="paint4_radial_238_2298" cx="0" cy="0" r="1" gradientUnits="userSpaceOnUse" gradientTransform="translate(263.958 0.5) scale(263.958 0.5)">
<stop stop-color="#D9D9D9"/>
<stop offset="1" stop-color="#0A0A0A"/>
</radialGradient>
<radialGradient id="paint5_radial_238_2298" cx="0" cy="0" r="1" gradientUnits="userSpaceOnUse" gradientTransform="translate(263.958 0.5) scale(263.958 0.5)">
<stop stop-color="#D9D9D9"/>
<stop offset="1" stop-color="#0A0A0A"/>
</radialGradient>
<linearGradient id="paint6_linear_238_2298" x1="350" y1="137" x2="350" y2="257.533" gradientUnits="userSpaceOnUse">
<stop stop-color="#FEFFFE"/>
<stop offset="1" stop-color="#989998"/>
</linearGradient>
</defs>
</svg>
